<svg width="133" height="133" viewBox="0 0 133 133" fill="none" xmlns="http://www.w3.org/2000/svg">
<path d="M51.1043 121L20.1113 83.7226L15 24.1942L48.789 54.2026L51.1043 121Z" fill="#CCCCCC"/>
<path d="M117.395 34.9644L48.789 54.2026L15 24.1942L75.8929 11L117.395 34.9644Z" fill="#CCCCCC"/>
<path d="M111.499 97.3845L51.1043 121L48.789 54.2026L117.395 34.9644L111.499 97.3845Z" fill="#CCCCCC"/>
<path d="M15 24.1942L75.8929 11L117.395 34.9644L111.499 97.3845L51.1043 121L20.1113 83.7226L15 24.1942Z" stroke="black"/>
<path fill-rule="evenodd" clip-rule="evenodd" d="M66.6694 49.2015C76.932 61.9736 62.9239 92.2373 67.9803 113.362C71.3887 112.163 75.7709 111.414 78.655 108.643C62.0624 81.6001 81.8345 67.2049 75.2424 47.0915C72.0962 48.2526 69.3661 48.4898 66.6694 49.2015Z" fill="black" stroke="black" stroke-linejoin="round"/>
<path fill-rule="evenodd" clip-rule="evenodd" d="M62.3587 115.788C57.0578 94.0287 69.1406 76.869 63.4623 52.3103C64.1198 86.5301 47.0178 91.5292 54.0168 119.013C56.99 118.416 60.071 116.855 62.3587 115.788Z" fill="black" stroke="black" stroke-linejoin="round"/>
<path fill-rule="evenodd" clip-rule="evenodd" d="M55.1481 54.3924C56.3942 65.7637 49.5605 60.2443 50.526 86.7595C54.9538 66.8601 56.5695 76.9717 61.3352 52.0106" fill="black"/>
<path d="M55.1481 54.3924C56.3942 65.7637 49.5605 60.2443 50.526 86.7595C54.9538 66.8601 56.5695 76.9717 61.3352 52.0106" stroke="black" stroke-linejoin="round"/>
<path fill-rule="evenodd" clip-rule="evenodd" d="M77.2317 45.0814C90.1911 65.045 77.2317 84.8212 80.7899 108.643C81.951 107.894 85.8838 107.294 89.2173 105.571C72.3251 100.103 93.4289 68.7447 86.2375 42.9382C83.0913 44.0993 79.9284 44.3698 77.2317 45.0814Z" fill="black" stroke="black" stroke-linejoin="round"/>
<path fill-rule="evenodd" clip-rule="evenodd" d="M91.6893 41.1861C94.461 52.6099 93.4872 85.5703 92.7006 105.796C96.109 104.597 97.4948 102.8 101.278 101.676C87.2322 93.0613 102.177 46.3549 100.679 39.4257C97.5323 40.5868 94.3861 40.4745 91.6893 41.1861Z" fill="black" stroke="black" stroke-linejoin="round"/>
<path fill-rule="evenodd" clip-rule="evenodd" d="M106.11 37.5904C119.069 44.3698 106.709 69.6894 109.967 96.657C113.376 95.4584 111.316 96.2075 112.252 96.1326C113.039 89.0162 117.346 37.5155 117.346 34.7813C114.2 35.9424 108.806 36.8788 106.11 37.5904Z" fill="black" stroke="black" stroke-linejoin="round"/>
<path fill-rule="evenodd" clip-rule="evenodd" d="M107.136 98.9307C111.115 82.7308 102.208 69.5444 104.553 46.8418C94.463 74.0833 108.958 84.6399 99.1881 102.242C101.099 101.288 104.759 99.4813 107.136 98.9307Z" fill="black" stroke="black" stroke-linejoin="round"/>
<path fill-rule="evenodd" clip-rule="evenodd" d="M23.1466 30.7736C20.787 42.5719 25.5063 52.0106 25.5063 61.4493C25.5063 70.8879 23.7459 77.9295 23.7459 80.2892C26.5925 76.8058 31.4991 70.0639 31.3118 64.8202C31.0205 56.6626 27.866 47.2913 27.866 44.9316C27.866 42.5719 30.0758 37.553 30.0758 37.553L23.1466 30.7736Z" fill="black" stroke="black" stroke-linejoin="round"/>
<path fill-rule="evenodd" clip-rule="evenodd" d="M46.0826 115.422C45.3586 83.186 41.9171 94.8002 44.7342 63.8089C39.5723 86.0284 37.2202 88.2745 39.1534 106.545L46.0826 115.422Z" fill="black" stroke="black" stroke-linejoin="round"/>
<path fill-rule="evenodd" clip-rule="evenodd" d="M24.1579 89.4282C27.9783 80.2517 32.0984 76.6935 39.4396 65.869C37.1923 75.5698 30.8624 81.8997 32.5853 98.0803" fill="black"/>
<path d="M24.1579 89.4282C27.9783 80.2517 32.0984 76.6935 39.4396 65.869C37.1923 75.5698 30.8624 81.8997 32.5853 98.0803" stroke="black" stroke-linejoin="round"/>
<path fill-rule="evenodd" clip-rule="evenodd" d="M38.7279 46.0178C34.0086 49.5011 44.7207 61.5991 34.533 67.3297C35.2821 55.831 29.926 50.2502 33.5966 40.2123" fill="black"/>
<path d="M38.7279 46.0178C34.0086 49.5011 44.7207 61.5991 34.533 67.3297C35.2821 55.831 29.926 50.2502 33.5966 40.2123" stroke="black" stroke-linejoin="round"/>
<path fill-rule="evenodd" clip-rule="evenodd" d="M20.6372 28.8634C19.1858 27.927 16.5452 25.8857 15.3186 24.1441C15.4403 30.6425 16.9478 48.8831 17.0789 53.8085C22.1541 48.6958 15.4965 35.6428 20.6372 28.8634Z" fill="black" stroke="black" stroke-linejoin="round"/>
<path fill-rule="evenodd" clip-rule="evenodd" d="M47.9707 54.1456C44.3002 57.6289 45.5736 60.2882 40.7794 68.5657C42.727 61.1122 40.3674 57.7787 42.0903 48.4898" fill="black"/>
<path d="M47.9707 54.1456C44.3002 57.6289 45.5736 60.2882 40.7794 68.5657C42.727 61.1122 40.3674 57.7787 42.0903 48.4898" stroke="black" stroke-linejoin="round"/>
<path fill-rule="evenodd" clip-rule="evenodd" d="M31.3697 20.27C46.1486 28.0064 45.5691 38.1757 59.2983 50.3626C38.0325 39.8558 45.431 32.0475 22.716 23.0331C24.6959 22.2315 29.3841 21.6877 31.3697 20.27Z" fill="black" stroke="black" stroke-linejoin="round"/>
<path fill-rule="evenodd" clip-rule="evenodd" d="M66.855 49.5174C52.0761 41.781 52.2062 31.1622 38.477 18.9753C59.7428 29.4821 52.7938 38.1893 75.5088 47.2037C73.5288 48.0053 68.541 48.9986 66.855 49.5174Z" fill="black" stroke="black" stroke-linejoin="round"/>
<path fill-rule="evenodd" clip-rule="evenodd" d="M64.6728 14.256C75.4066 28.5844 69.2837 25.1201 83.762 38.3558C61.4474 22.1558 72.1419 25.4342 56.1689 16.5697C58.1488 15.768 62.5373 14.7747 64.6728 14.256Z" fill="black" stroke="black" stroke-linejoin="round"/>
<path fill-rule="evenodd" clip-rule="evenodd" d="M70.4523 12.4956C88.1827 26.7628 103.548 27.5263 105.922 37.553C108.619 37.7777 116.372 35.3431 116.372 35.3431L76.2579 11.8963L70.4523 12.4956Z" fill="black" stroke="black" stroke-linejoin="round"/>
<path fill-rule="evenodd" clip-rule="evenodd" d="M77.5934 45.7931C63.5636 33.5621 69.0872 31.483 55.0583 18.9965C77.3729 35.1965 68.3264 37.761 86.2471 43.0299C84.2672 43.8316 79.7288 45.2743 77.5934 45.7931Z" fill="black"/>
<path fill-rule="evenodd" clip-rule="evenodd" d="M92.0248 41.8391C88.0329 30.0575 70.9337 26.3305 66.793 11.8963C75.7735 23.4519 89.3499 29.3124 100.529 39.5254C98.5487 40.327 94.0104 40.4214 92.0248 41.8391Z" fill="black"/>
<path fill-rule="evenodd" clip-rule="evenodd" d="M48.8911 16.6156C53.3324 21.056 57.8468 26.4311 60.6391 33.5241C54.8048 26.7627 49.918 21.5014 40.3872 18.9293C42.3671 18.1277 46.1564 16.6849 48.8911 16.6156Z" fill="black"/>
<path d="M51.1043 121L20.1113 83.7226L15 24.1941L48.789 54.2026L51.1043 121Z" stroke="#CCCCCC" stroke-width="4" stroke-linejoin="round"/>
<path d="M117.395 34.9644L48.789 54.2026L15 24.1942L75.8929 11L117.395 34.9644Z" stroke="#CCCCCC" stroke-width="4" stroke-linejoin="round"/>
<path d="M111.499 97.3845L51.1043 121L48.789 54.2026L117.395 34.9644L111.499 97.3845Z" stroke="#CCCCCC" stroke-width="4" stroke-linejoin="round"/>
</svg>
