<svg width="133" height="133" viewBox="0 0 133 133" fill="none" xmlns="http://www.w3.org/2000/svg">
<path d="M94.4575 97.3584C109.867 97.3584 122.36 84.8662 122.36 69.4562C122.36 54.0463 109.867 41.554 94.4575 41.554C79.0476 41.554 66.5553 54.0463 66.5553 69.4562C66.5553 84.8662 79.0476 97.3584 94.4575 97.3584Z" fill="black" stroke="#CCCCCC" stroke-width="5"/>
<path d="M58.3849 31.5366V80.0825L58.3967 80.0795C58.3967 84.3699 56.0359 88.6603 51.3111 91.9401C41.8587 98.485 26.538 98.485 17.0886 91.9401C12.3609 88.6662 10 85.2563 10 80.966V31.5395" fill="black" stroke="#CCCCCC" stroke-width="4"/>
<path d="M17.0944 22.4638C7.64789 27.0851 7.64789 34.5814 17.0944 39.1998C26.538 43.8181 41.8468 43.8181 51.2963 39.1998C60.7398 34.5814 60.7398 27.088 51.2933 22.4638C41.8468 17.8454 26.535 17.8454 17.0944 22.4638Z" fill="black" stroke="#CCCCCC" stroke-width="4"/>
<path d="M92.8057 97.134C93.4291 98.242 93.7601 99.4092 93.7601 100.606C93.7601 108.17 80.5669 114 64.2889 114C48.0138 114 34.8176 108.167 34.8176 100.606C34.8176 99.1935 35.2756 97.8343 36.1296 96.5548L64.3627 47.2864L92.8057 97.134Z" fill="black" stroke="#CCCCCC" stroke-width="5"/>
</svg>
