<svg width="133" height="133" viewBox="0 0 133 133" fill="none" xmlns="http://www.w3.org/2000/svg">
<g clip-path="url(#clip0_4_131)">
<path d="M108.659 42.1593C111.856 47.6958 113.93 53.8076 114.765 60.1458C115.599 66.4841 115.177 72.9246 113.523 79.0997C111.868 85.2748 109.013 91.0635 105.122 96.1354C101.23 101.207 96.3771 105.463 90.8407 108.659C85.3042 111.856 79.1924 113.93 72.8542 114.765C66.516 115.599 60.0754 115.177 53.9003 113.523C47.7252 111.868 41.9365 109.013 36.8647 105.122C31.7928 101.23 27.5371 96.3771 24.3407 90.8407C21.1442 85.3042 19.0695 79.1924 18.2351 72.8542C17.4007 66.516 17.8228 60.0754 19.4774 53.9003C21.132 47.7252 23.9867 41.9365 27.8785 36.8647C31.7702 31.7928 36.6229 27.5372 42.1593 24.3407C47.6958 21.1442 53.8076 19.0695 60.1458 18.2351C66.484 17.4007 72.9246 17.8228 79.0997 19.4774C85.2748 21.132 91.0635 23.9867 96.1354 27.8785C101.207 31.7702 105.463 36.6229 108.659 42.1593Z" fill="#CCCCCC"/>
<path d="M19.7843 55.8557C22.0216 59.7309 37.54 54.9649 54.4235 45.2172C71.3069 35.4695 83.1936 24.4132 80.9563 20.538C86.1844 21.4834 91.1342 23.4675 95.525 27.5378C98.1626 32.4501 83.6956 47.2061 62.4537 59.47C41.2119 71.734 21.1994 76.8848 18.3129 71.8852C17.4213 67.7194 18.5738 60.91 19.7069 55.8507M27.8819 36.0133C29.02 37.9846 36.9138 35.5602 45.502 30.6018C54.0902 25.6434 60.1366 20.0193 58.9985 18.0481L69.0846 18.6737C70.1115 22.3474 60.392 31.6135 49.5868 37.8519C38.7816 44.0902 25.1692 47.3017 23.7009 44.7585L27.8425 36.0108M22.4506 85.6531C29.8682 88.5238 52.6756 81.933 69.559 72.1853C86.4425 62.4376 107.908 41.4812 105.671 37.606L112.224 51.0211C114.862 55.9334 98.8311 74.1742 77.5893 86.4382C56.3475 98.7021 32.0823 102.336 29.1957 97.336M40.7756 107.588C47.3965 110.15 68.8723 106.652 83.9424 97.9518C99.0125 89.2511 114.333 70.3274 115.143 64.8502L114.787 77.4282C112.84 82.157 106.865 93.9908 87.9048 104.938C68.9445 115.884 55.3671 113.598 50.2103 113.264" fill="black"/>
<path d="M19.7843 55.8557C22.0216 59.7309 37.54 54.9649 54.4235 45.2172C71.3069 35.4695 83.1936 24.4132 80.9563 20.538C86.1844 21.4834 91.1342 23.4675 95.525 27.5378C98.1626 32.4501 83.6956 47.2061 62.4537 59.47C41.2119 71.734 21.1994 76.8848 18.3129 71.8852C17.4213 67.7194 18.5738 60.91 19.7069 55.8507M27.8819 36.0133C29.02 37.9846 36.9138 35.5602 45.502 30.6018C54.0902 25.6434 60.1366 20.0193 58.9985 18.0481L69.0846 18.6737C70.1115 22.3474 60.392 31.6135 49.5868 37.8519C38.7816 44.0902 25.1692 47.3017 23.7009 44.7585L27.8425 36.0108M22.4506 85.6531C29.8682 88.5238 52.6756 81.933 69.559 72.1853C86.4425 62.4376 107.908 41.4812 105.671 37.606L112.224 51.0211C114.862 55.9334 98.8311 74.1742 77.5893 86.4382C56.3475 98.7021 32.0823 102.336 29.1957 97.336M40.7756 107.588C47.3965 110.15 68.8723 106.652 83.9424 97.9518C99.0125 89.2511 114.333 70.3274 115.143 64.8502L114.787 77.4282C112.84 82.157 106.865 93.9908 87.9048 104.938C68.9445 115.884 55.3671 113.598 50.2103 113.264" stroke="black" stroke-width="2"/>
<path d="M108.659 42.1593C111.856 47.6958 113.93 53.8076 114.765 60.1458C115.599 66.4841 115.177 72.9246 113.523 79.0997C111.868 85.2748 109.013 91.0635 105.122 96.1354C101.23 101.207 96.3771 105.463 90.8407 108.659C85.3042 111.856 79.1924 113.93 72.8542 114.765C66.516 115.599 60.0754 115.177 53.9003 113.523C47.7252 111.868 41.9365 109.013 36.8647 105.122C31.7928 101.23 27.5371 96.3771 24.3407 90.8407C21.1442 85.3042 19.0695 79.1924 18.2351 72.8542C17.4007 66.516 17.8228 60.0754 19.4774 53.9003C21.132 47.7252 23.9867 41.9365 27.8785 36.8647C31.7702 31.7928 36.6229 27.5372 42.1593 24.3407C47.6958 21.1442 53.8076 19.0695 60.1458 18.2351C66.484 17.4007 72.9246 17.8228 79.0997 19.4774C85.2748 21.132 91.0635 23.9867 96.1354 27.8785C101.207 31.7702 105.463 36.6229 108.659 42.1593Z" stroke="#CCCCCC" stroke-width="4" stroke-linecap="round" stroke-linejoin="bevel"/>
</g>
<defs>
<clipPath id="clip0_4_131">
<rect width="133" height="133" fill="white"/>
</clipPath>
</defs>
</svg>
