<svg width="133" height="133" viewBox="0 0 133 133" fill="none" xmlns="http://www.w3.org/2000/svg">
<path d="M89.2958 17.0003C87.7159 16.9847 86.1673 17.554 84.9942 18.6302C84.9285 18.6959 84.8471 18.7616 84.7814 18.8273L51.5576 55.5706L32.152 39.6689L30.4564 38.2016C29.2676 37.2224 27.6221 36.9628 26.1861 37.5666C26.1705 37.5666 26.1549 37.5822 26.1361 37.5822L18.559 40.7106C18.4621 40.7607 18.3463 40.8076 18.2493 40.8576C18.168 40.9077 18.1023 40.939 18.0366 40.9703C17.9865 41.0016 17.9396 41.036 17.8896 41.0673C17.8239 41.1173 17.7425 41.1642 17.6768 41.2143C17.6455 41.2456 17.5955 41.28 17.5642 41.3113C17.4985 41.3613 17.4328 41.4083 17.3859 41.4583C17.3202 41.5084 17.2733 41.5553 17.2232 41.6053C17.1919 41.6366 17.1419 41.6867 17.0918 41.7524C17.0418 41.8024 16.9948 41.8494 16.9604 41.8994C16.9104 41.9651 16.8634 42.0308 16.8134 42.0965C16.7821 42.1278 16.7477 42.1778 16.7164 42.2279C16.6664 42.2936 16.6194 42.3749 16.5694 42.4406C16.5537 42.4907 16.5193 42.5376 16.488 42.5877C16.4567 42.6534 16.4223 42.7191 16.3911 42.8004C16.3598 42.8661 16.341 42.913 16.3097 42.9787C16.2941 43.0444 16.2597 43.1101 16.244 43.1758C16.2127 43.2415 16.194 43.3072 16.1783 43.3729C16.147 43.4386 16.1283 43.5199 16.1126 43.6013C16.097 43.6513 16.0813 43.6983 16.0626 43.764C16.0626 43.8297 16.0469 43.911 16.0313 43.9923C16.0313 44.058 16.0156 44.1237 16.0156 44.2051C16 44.3177 16 44.4334 16 44.5461V88.9947C16 90.6715 17.0105 92.1888 18.559 92.8238L26.1361 96.018C27.5877 96.6218 29.2645 96.3433 30.4533 95.3328L32.1489 93.8656L51.5545 77.9638L84.7783 114.707C84.8753 114.804 84.991 114.904 85.088 114.986C85.1694 115.051 85.2507 115.133 85.332 115.198C85.3977 115.264 85.4791 115.311 85.5604 115.377C85.6574 115.442 85.7387 115.489 85.8201 115.555C85.9171 115.605 86.0172 115.668 86.0985 115.718C86.1955 115.768 86.2768 115.815 86.3769 115.865C86.477 115.915 86.5553 115.946 86.6554 115.996C86.7524 116.046 86.8525 116.077 86.9494 116.109C87.0464 116.159 87.1622 116.19 87.2592 116.221C87.3405 116.253 87.4375 116.271 87.5376 116.303C87.6377 116.334 87.7503 116.368 87.8629 116.384C87.9599 116.4 88.06 116.434 88.157 116.45C88.254 116.465 88.3541 116.481 88.4667 116.481C88.5637 116.497 88.6795 116.512 88.7764 116.512C88.8734 116.512 88.9735 116.528 89.0862 116.528C89.1831 116.528 89.2989 116.528 89.3959 116.528C89.5085 116.528 89.6242 116.512 89.7212 116.512C89.8182 116.497 89.9183 116.481 89.9996 116.481C90.131 116.465 90.2437 116.45 90.3751 116.415C90.4564 116.4 90.5377 116.384 90.6191 116.365C90.7317 116.334 90.8475 116.315 90.9601 116.268C91.0414 116.253 91.1384 116.218 91.2385 116.187C91.3386 116.156 91.4356 116.121 91.5326 116.074C91.664 116.024 91.7766 115.977 91.908 115.927L112.521 106.004C113.272 105.644 113.954 105.14 114.492 104.505C114.639 104.358 114.752 104.196 114.883 104.033C114.883 104.033 114.883 104.017 114.899 104.002C115.011 103.839 115.127 103.661 115.224 103.479C115.321 103.317 115.402 103.154 115.484 102.991C115.499 102.96 115.499 102.941 115.515 102.91C115.581 102.763 115.646 102.616 115.693 102.469C115.709 102.419 115.725 102.372 115.743 102.306C115.793 102.159 115.84 102.012 115.875 101.865C115.89 101.815 115.906 101.768 115.906 101.718C115.937 101.571 115.956 101.424 115.987 101.296C115.987 101.23 116.003 101.149 116.019 101.083C116.019 100.951 116.034 100.839 116.034 100.707C116.05 100.595 116.05 100.479 116.05 100.382V33.1711C116.05 33.1211 116.05 33.0741 116.05 33.0241C116.05 32.827 116.034 32.6174 116.019 32.4047C115.759 30.2867 114.439 28.4441 112.515 27.5337L91.9017 17.626C91.0883 17.2349 90.2061 17.0222 89.3114 17.0066L89.2958 17.0003ZM91.0383 45.5784V87.9435L65.1975 66.761L91.0383 45.5784ZM28.5012 52.4703L41.4215 66.761L28.5012 81.0516V52.4703Z" fill="black"/>
<path d="M89.2958 17.0003C87.7159 16.9847 86.1673 17.554 84.9942 18.6302C84.9285 18.6959 84.8471 18.7616 84.7814 18.8273L51.5576 55.5706L32.152 39.6688L30.4564 38.2016C29.2676 37.2224 27.6221 36.9627 26.1861 37.5665C26.1705 37.5665 26.1549 37.5822 26.1361 37.5822L18.559 40.7106C18.4621 40.7606 18.3463 40.8076 18.2493 40.8576C18.168 40.9077 18.1023 40.939 18.0366 40.9703C17.9865 41.0015 17.9396 41.036 17.8896 41.0672C17.8239 41.1173 17.7425 41.1642 17.6768 41.2143C17.6455 41.2456 17.5955 41.28 17.5642 41.3112C17.4985 41.3613 17.4328 41.4082 17.3859 41.4583C17.3202 41.5083 17.2733 41.5553 17.2232 41.6053C17.1919 41.6366 17.1419 41.6867 17.0918 41.7524C17.0418 41.8024 16.9948 41.8493 16.9604 41.8994C16.9104 41.9651 16.8634 42.0308 16.8134 42.0965C16.7821 42.1278 16.7477 42.1778 16.7164 42.2279C16.6664 42.2936 16.6194 42.3749 16.5694 42.4406C16.5537 42.4907 16.5193 42.5376 16.488 42.5876C16.4567 42.6533 16.4223 42.719 16.3911 42.8004C16.3598 42.8661 16.341 42.913 16.3097 42.9787C16.2941 43.0444 16.2597 43.1101 16.244 43.1758C16.2127 43.2415 16.194 43.3072 16.1783 43.3729C16.147 43.4386 16.1283 43.5199 16.1126 43.6013C16.097 43.6513 16.0813 43.6982 16.0626 43.7639C16.0626 43.8296 16.0469 43.911 16.0313 43.9923C16.0313 44.058 16.0156 44.1237 16.0156 44.205C16 44.3177 16 44.4334 16 44.546V88.9946C16 90.6714 17.0105 92.1887 18.559 92.8238L26.1361 96.0179C27.5877 96.6217 29.2645 96.3433 30.4533 95.3328L32.1489 93.8655L51.5545 77.9638L84.7783 114.707C84.8753 114.804 84.991 114.904 85.088 114.986C85.1694 115.051 85.2507 115.133 85.332 115.198C85.3977 115.264 85.4791 115.311 85.5604 115.377C85.6574 115.442 85.7387 115.489 85.8201 115.555C85.9171 115.605 86.0172 115.667 86.0985 115.718C86.1955 115.768 86.2768 115.815 86.3769 115.865C86.477 115.915 86.5553 115.946 86.6554 115.996C86.7524 116.046 86.8525 116.077 86.9494 116.109C87.0464 116.159 87.1622 116.19 87.2592 116.221C87.3405 116.253 87.4375 116.271 87.5376 116.303C87.6377 116.334 87.7503 116.368 87.8629 116.384C87.9599 116.4 88.06 116.434 88.157 116.45C88.254 116.465 88.3541 116.481 88.4667 116.481C88.5637 116.497 88.6795 116.512 88.7764 116.512C88.8734 116.512 88.9735 116.528 89.0862 116.528C89.1831 116.528 89.2989 116.528 89.3959 116.528C89.5085 116.528 89.6242 116.512 89.7212 116.512C89.8182 116.497 89.9183 116.481 89.9996 116.481C90.131 116.465 90.2437 116.45 90.3751 116.415C90.4564 116.4 90.5377 116.384 90.6191 116.365C90.7317 116.334 90.8475 116.315 90.9601 116.268C91.0414 116.253 91.1384 116.218 91.2385 116.187C91.3386 116.156 91.4356 116.121 91.5326 116.074C91.664 116.024 91.7766 115.977 91.908 115.927L112.521 106.004C113.272 105.644 113.954 105.14 114.492 104.505C114.639 104.358 114.752 104.196 114.883 104.033C114.883 104.033 114.883 104.017 114.899 104.002C115.011 103.839 115.127 103.661 115.224 103.479C115.321 103.316 115.402 103.154 115.484 102.991C115.499 102.96 115.499 102.941 115.515 102.91C115.581 102.763 115.646 102.616 115.693 102.469C115.709 102.419 115.725 102.372 115.743 102.306C115.793 102.159 115.84 102.012 115.875 101.865C115.89 101.815 115.906 101.768 115.906 101.718C115.937 101.571 115.956 101.424 115.987 101.296C115.987 101.23 116.003 101.149 116.019 101.083C116.019 100.951 116.034 100.839 116.034 100.707C116.05 100.595 116.05 100.479 116.05 100.382V33.1711C116.05 33.1211 116.05 33.0741 116.05 33.0241C116.05 32.827 116.034 32.6174 116.019 32.4046C115.759 30.2867 114.439 28.4441 112.515 27.5337L91.9017 17.626C91.0883 17.2349 90.2061 17.0222 89.3114 17.0066L89.2958 17.0003ZM91.0383 45.5784V87.9435L65.1975 66.7609L91.0383 45.5784ZM28.5012 52.4703L41.4215 66.7609L28.5012 81.0516V52.4703Z" stroke="#CCCCCC" stroke-width="4"/>
</svg>
