<svg width="48" height="48" viewBox="0 0 48 48" fill="none" xmlns="http://www.w3.org/2000/svg">
<g clip-path="url(#clip0_2206_6)">
<path d="M4.95281 4.84111C2.0107 7.70864 0.494189 10.873 1.55678 12.0273C1.80936 12.3017 4.55141 15.2806 4.80399 15.555C5.91883 16.7661 9.46631 15.3235 12.6979 12.3489C15.9295 9.37418 17.6353 5.98116 16.5205 4.77003C16.2679 4.49563 13.5258 1.51676 13.2732 1.24236C12.1584 0.0312276 8.636 1.45074 5.4044 4.42542C5.25292 4.56486 5.0975 4.70008 4.95281 4.84111Z" fill="url(#paint0_linear_2206_6)" stroke="#204A87" stroke-linecap="round"/>
<path d="M15.8628 6.22438C16.0324 6.40871 15.6992 7.04199 14.9364 7.9849C14.1737 8.92781 13.0438 10.1031 11.7954 11.2523C10.547 12.4014 9.28233 13.4303 8.2796 14.1125C7.27687 14.7947 6.61822 15.0745 6.44855 14.8901C6.27887 14.7058 6.61207 14.0725 7.37485 13.1296C8.13763 12.1867 9.26749 11.0114 10.5159 9.86225C11.7643 8.7131 13.029 7.68424 14.0317 7.00201C15.0344 6.31977 15.6931 6.04005 15.8628 6.22438Z" fill="#3465A4"/>
<path d="M26.7666 42.8176L8.38273 20.7697L7.50765 14.888C8.87754 12.4671 13.5761 8.14205 15.9134 7.15046L21.1282 7.88454L44.1671 27.7228L26.7666 42.8176Z" fill="url(#paint1_linear_2206_6)" stroke="#5A5A5A" stroke-linecap="round"/>
<path d="M27.422 41.7408C27.422 41.7408 21.3125 29.9663 26.2031 25.4644C31.249 20.8197 43.2908 27.8296 43.2908 27.8296L27.422 41.7408Z" fill="url(#paint2_linear_2206_6)"/>
<path d="M11.0361 23.2423L16.6328 29.9092C17.2947 27.3316 27.3326 17.752 31.1585 17.246L24.4647 11.3652C22.2164 11.6949 12.6631 19.5302 11.0361 23.2423Z" fill="url(#paint3_linear_2206_6)" fill-opacity="0.94" style="mix-blend-mode:plus-darker"/>
<path opacity="0.594444" d="M27.0266 40.8745L9.5259 20.1222L8.58547 15.4518C9.84379 13.2126 14.1783 9.22269 16.34 8.31382L20.5807 9.03313L42.3303 27.7984L27.0266 40.8745Z" stroke="white" stroke-linecap="round"/>
<path d="M42.7604 25.1394L24.7703 41.6993C24.2879 42.1433 24.2568 42.8943 24.7008 43.3767L26.6655 45.511C27.1095 45.9933 27.8604 46.0244 28.3428 45.5804L46.3329 29.0205C46.8153 28.5765 46.8464 27.8255 46.4024 27.3432L44.4378 25.2089C43.9937 24.7265 43.2428 24.6954 42.7604 25.1394Z" fill="url(#paint4_linear_2206_6)" stroke="#5A5A5A" stroke-linecap="round"/>
<path d="M8.97267 20.5742C9.5823 17.5193 16.457 10.6637 20.9895 8.40528L16.0553 7.67996C12.9997 9.27474 9.8596 12.6972 7.94101 15.2751L8.97267 20.5742Z" fill="white"/>
<path opacity="0.861111" d="M10.2017 18.3841L24.2603 33.657L24.1875 27.1626L12.3892 15.0582L10.2017 18.3841Z" fill="url(#paint5_linear_2206_6)"/>
<g opacity="0.577778">
<path opacity="0.411111" d="M2.73142 10.593L5.6784 13.7945C5.6784 13.7945 5.96609 12.895 6.32859 12.5365L3.36373 9.31553C2.95107 9.82219 2.73142 10.593 2.73142 10.593Z" fill="#E6E7E6"/>
<path d="M4.14279 8.16026L7.08978 11.3618C7.08978 11.3618 7.61864 10.7243 7.98115 10.3657L4.96604 7.09023C4.484 7.58106 4.14279 8.16026 4.14279 8.16026Z" fill="#E6E7E6"/>
<path opacity="0.444444" d="M5.93813 6.14464L8.93536 9.40074C8.93536 9.40074 9.47998 8.88996 9.92722 8.51389L6.89202 5.21654C6.35055 5.62089 5.93813 6.14464 5.93813 6.14464Z" fill="#E6E7E6"/>
</g>
</g>
<defs>
<linearGradient id="paint0_linear_2206_6" x1="3.66295" y1="15.1706" x2="16.2316" y2="3.60114" gradientUnits="userSpaceOnUse">
<stop stop-color="#729FCF"/>
<stop offset="1" stop-color="#3C74B1"/>
</linearGradient>
<linearGradient id="paint1_linear_2206_6" x1="18.2189" y1="28.3182" x2="29.9643" y2="17.5066" gradientUnits="userSpaceOnUse">
<stop stop-color="#F2F2F2"/>
<stop offset="1" stop-color="#C3C3C3"/>
</linearGradient>
<linearGradient id="paint2_linear_2206_6" x1="27.785" y1="26.56" x2="35.5298" y2="34.9736" gradientUnits="userSpaceOnUse">
<stop stop-color="#AEAEAE"/>
<stop offset="1" stop-color="#C4C4C4" stop-opacity="0"/>
</linearGradient>
<linearGradient id="paint3_linear_2206_6" x1="13.5435" y1="26.5531" x2="27.7166" y2="13.5068" gradientUnits="userSpaceOnUse">
<stop stop-color="#FF1E56"/>
<stop offset="0.5" stop-color="#F9C942"/>
<stop offset="1" stop-color="#1E90FF"/>
</linearGradient>
<linearGradient id="paint4_linear_2206_6" x1="33.5698" y1="34.534" x2="36.4145" y2="37.1894" gradientUnits="userSpaceOnUse">
<stop stop-color="#F2F2F2"/>
<stop offset="1" stop-color="#C3C3C3"/>
</linearGradient>
<linearGradient id="paint5_linear_2206_6" x1="12.9443" y1="18.156" x2="23.7335" y2="29.877" gradientUnits="userSpaceOnUse">
<stop stop-color="white"/>
<stop offset="1" stop-color="white" stop-opacity="0"/>
</linearGradient>
<clipPath id="clip0_2206_6">
<rect width="48" height="48" fill="white"/>
</clipPath>
</defs>
</svg>
