<svg width="48" height="48" viewBox="0 0 48 48" fill="none" xmlns="http://www.w3.org/2000/svg">
<path d="M45 33.2047V11.0682L25.8282 0V8.49882L33.3388 12.8471C33.6353 13.0447 33.6353 13.44 33.3388 13.5388L24.4447 18.6776C24.1482 18.8753 23.8518 18.7765 23.6541 18.6776L14.76 13.5388C14.4635 13.44 14.4635 12.9459 14.76 12.8471L22.2706 8.49882V0L3 11.0682V33.2047L10.3129 28.9553V20.2588C10.3129 19.9623 10.7082 19.7647 10.9059 19.8635L19.8 25.0023C20.0965 25.2 20.1953 25.3976 20.1953 25.6941V35.9717C20.1953 36.2682 19.8 36.4659 19.6024 36.367L12.0918 32.0188L4.77882 36.2682L23.9506 47.4353L43.1224 36.367L35.8094 32.1176L28.2988 36.4659C28.0024 36.6635 27.7059 36.4659 27.7059 36.0706V25.7929C27.7059 25.4965 27.9035 25.2 28.1012 25.1012L36.9953 19.9623C37.2918 19.7647 37.5882 19.9623 37.5882 20.3576V29.0541L45 33.2047Z" fill="#4C4C4C"/>
<path d="M23.9506 47.4353L43.1223 36.3671L35.8094 32.1177L28.2988 36.4659C28.0023 36.6635 27.7059 36.4659 27.7059 36.0706V25.7929C27.7059 25.4965 27.9035 25.2 28.1012 25.1012L36.9953 19.9624C37.2918 19.7647 37.5882 19.9624 37.5882 20.3577V29.0541L44.9012 33.3035V11.0682L23.9506 23.2235V47.4353Z" fill="black"/>
<path d="M25.8282 0V8.49882L33.3388 12.8471C33.6353 13.0447 33.6353 13.44 33.3388 13.5388L24.4447 18.6776C24.1482 18.8753 23.8518 18.7765 23.6541 18.6776L14.76 13.5388C14.4635 13.44 14.4635 12.9459 14.76 12.8471L22.2706 8.49882V0L3 11.0682L23.9506 23.2235L44.9012 11.0682L25.8282 0Z" fill="#3B3B3B"/>
<path d="M19.7012 36.4659L12.1906 32.1177L4.87765 36.3671L24.0494 47.4353V23.2235L3 11.0682V33.2047L10.3129 28.9553V20.2588C10.3129 19.9624 10.7082 19.7647 10.9059 19.8635L19.8 25.0024C20.0965 25.2 20.1953 25.3977 20.1953 25.6941V35.9718C20.2941 36.3671 19.9976 36.6635 19.7012 36.4659Z" fill="black"/>
</svg>
